{
  "accessors": [
    {
      "bufferView": 2,
      "componentType": 5126,
      "count": 2402,
      "max": [
        3.7702620029449463,
        7.63234806060791,
        3.434628963470459
      ],
      "min": [
        -3.7702620029449463,
        -5.262746810913086,
        -1.984341025352478
      ],
      "type": "VEC3"
    },
    {
      "bufferView": 2,
      "byteOffset": 28824,
      "componentType": 5126,
      "count": 2402,
      "max": [
        0.9998510479927063,
        0.9999438524246216,
        0.9998815059661865
      ],
      "min": [
        -0.9998510479927063,
        -0.9955868124961853,
        -0.9994454383850098
      ],
      "type": "VEC3"
    },
    {
      "bufferView": 3,
      "componentType": 5126,
      "count": 2402,
      "max": [
        0.9999997615814209,
        0.9985678195953369,
        0.999826967716217,
        1.0
      ],
      "min": [
        -0.9999994039535522,
        -0.9994226694107056,
        -0.9998958110809326,
        -1.0
      ],
      "type": "VEC4"
    },
    {
      "bufferView": 1,
      "componentType": 5126,
      "count": 2402,
      "max": [
        0.9964861273765564,
        0.9902064204216003
      ],
      "min": [
        0.010741382837295532,
        0.009776828810572624
      ],
      "type": "VEC2"
    },
    {
      "bufferView": 0,
      "componentType": 5125,
      "count": 12252,
      "type": "SCALAR"
    }
  ],
  "asset": {
    "extras": {
      "author": "XelaDoesArt (https://sketchfab.com/XelaDoesArt)",
      "license": "CC-BY-4.0 (http://creativecommons.org/licenses/by/4.0/)",
      "source": "https://sketchfab.com/3d-models/finn-the-shark-c60933a54ffd4a21a5853592daf19d55",
      "title": "Finn The Shark"
    },
    "generator": "Sketchfab-12.66.0",
    "version": "2.0"
  },
  "bufferViews": [
    {
      "buffer": 0,
      "byteLength": 49008,
      "name": "floatBufferViews",
      "target": 34963
    },
    {
      "buffer": 0,
      "byteLength": 19216,
      "byteOffset": 49008,
      "byteStride": 8,
      "name": "floatBufferViews",
      "target": 34962
    },
    {
      "buffer": 0,
      "byteLength": 57648,
      "byteOffset": 68224,
      "byteStride": 12,
      "name": "floatBufferViews",
      "target": 34962
    },
    {
      "buffer": 0,
      "byteLength": 38432,
      "byteOffset": 125872,
      "byteStride": 16,
      "name": "floatBufferViews",
      "target": 34962
    }
  ],
  "buffers": [
    {
      "byteLength": 164304,
      "uri": "src/components/objects/Shark/scene.bin"
    }
  ],
  "images": [
    {
      "uri": "src/components/objects/Shark/textures/Material_2_baseColor.png"
    },
    {
      "uri": "src/components/objects/Shark/textures/Material_2_metallicRoughness.png"
    },
    {
      "uri": "src/components/objects/Shark/textures/Material_2_normal.png"
    }
  ],
  "materials": [
    {
      "doubleSided": true,
      "name": "Material_2",
      "normalTexture": {
        "index": 2
      },
      "occlusionTexture": {
        "index": 1
      },
      "pbrMetallicRoughness": {
        "baseColorTexture": {
          "index": 0
        },
        "metallicFactor": 0.0,
        "metallicRoughnessTexture": {
          "index": 1
        }
      }
    }
  ],
  "meshes": [
    {
      "name": "Shark_Low001_Material #2_0",
      "primitives": [
        {
          "attributes": {
            "NORMAL": 1,
            "POSITION": 0,
            "TANGENT": 2,
            "TEXCOORD_0": 3
          },
          "indices": 4,
          "material": 0,
          "mode": 4
        }
      ]
    }
  ],
  "nodes": [
    {
      "children": [
        1
      ],
      "matrix": [
        1.0,
        0.0,
        0.0,
        0.0,
        0.0,
        2.220446049250313e-16,
        -1.0,
        0.0,
        0.0,
        1.0,
        2.220446049250313e-16,
        0.0,
        0.0,
        0.0,
        0.0,
        1.0
      ],
      "name": "Sketchfab_model"
    },
    {
      "children": [
        2
      ],
      "matrix": [
        0.009999999776482582,
        0.0,
        0.0,
        0.0,
        0.0,
        0.0,
        0.009999999776482582,
        0.0,
        0.0,
        -0.009999999776482582,
        0.0,
        0.0,
        0.0,
        0.0,
        0.0,
        1.0
      ],
      "name": "6574488c479146a8a94d606d97261068.fbx"
    },
    {
      "children": [
        3
      ],
      "name": "RootNode"
    },
    {
      "children": [
        4
      ],
      "matrix": [
        1.0,
        0.0,
        0.0,
        0.0,
        0.0,
        2.220446049250313e-16,
        -1.0,
        0.0,
        0.0,
        1.0,
        2.220446049250313e-16,
        0.0,
        0.0,
        0.0,
        0.0,
        1.0
      ],
      "name": "Shark_Low001"
    },
    {
      "mesh": 0,
      "name": "Shark_Low001_Material #2_0"
    }
  ],
  "samplers": [
    {
      "magFilter": 9729,
      "minFilter": 9987,
      "wrapS": 10497,
      "wrapT": 10497
    }
  ],
  "scene": 0,
  "scenes": [
    {
      "name": "Sketchfab_Scene",
      "nodes": [
        0
      ]
    }
  ],
  "textures": [
    {
      "sampler": 0,
      "source": 0
    },
    {
      "sampler": 0,
      "source": 1
    },
    {
      "sampler": 0,
      "source": 2
    }
  ]
}
